<svg id="Layer_1" data-name="Layer 1" xmlns="http://www.w3.org/2000/svg" viewBox="0 0 307.95 529.14"><defs><style>.cls-1{fill:#fbcbbc;}.cls-2{fill:#e6e8ef;}.cls-3{fill:#299d48;}.cls-19,.cls-20,.cls-4{fill:none;stroke-miterlimit:10;}.cls-4{stroke:#856b6b;}.cls-5{fill:#fbb03d;}.cls-6{fill:#e18c26;}.cls-7{fill:#b4b4b4;}.cls-8{fill:#e6e6e5;}.cls-18,.cls-9{fill:#fff;}.cls-9{opacity:0.56;}.cls-10{fill:#878787;}.cls-11{fill:#fbcfca;}.cls-12{fill:#dedbd4;}.cls-13{fill:#a4a39f;}.cls-14{fill:#142148;}.cls-15{fill:#f9b385;}.cls-16{fill:#e95554;}.cls-17{fill:#f59390;}.cls-19{stroke:#fff;}.cls-20{stroke:#f4f4f5;}.cls-21{fill:#b3b3b3;}.cls-22{fill:#484949;}</style></defs><title>MKmate [Recovered]</title><path class="cls-1" d="M566.75,239.55l8.77-40.2,7.67-.24c1.64,19,.43,26,.43,26" transform="translate(-280.42 -23.88)"/><polyline class="cls-2" points="291.39 187.69 292.99 180.79 304.37 181.32 304.55 190.77"/><path class="cls-3" d="M489.65,230.82s12.91-13.47,31.66-6.58,32.67,14.67,39.23,16.37L572,208.31l13.85.88c3.78,18.65,6.08,49.85-14,61.05-21.68,12.11-66.37-2.9-66.37-2.9" transform="translate(-280.42 -23.88)"/><line class="cls-4" x1="276.48" y1="227.4" x2="280.12" y2="216.73"/><path class="cls-1" d="M572.39,186.29s-2-9.55-.8-10.13,1.7,1,1.73,1.23,1.51,6.42,1.51,6.42,1.74-1.58,2.34,0c0,0,1.59-1.75,2.17-.26,0,0,1.34-.73,1.38.17,0,0,2.15-1.23,2.11,1s2.32,1.65.36,14.36l-7.67.24-2.83-3.67s-3.11-3.67-2.69-6.84,8.56-4.57,7.79-3.07-4.65,3-4.65,3" transform="translate(-280.42 -23.88)"/><path class="cls-5" d="M467,64.47a21.48,21.48,0,0,0-22.54-21.21c-11.28.54-20.16,10.27-20.15,21.57a21.06,21.06,0,0,0,8.06,16.76A16.76,16.76,0,0,1,439,94.46v.22L453,94.44v0a16.63,16.63,0,0,1,6.29-13.07A21.19,21.19,0,0,0,467,64.47Z" transform="translate(-280.42 -23.88)"/><path class="cls-6" d="M449.66,93.63c-.48,0-1.73-.36-1.74-.85l-.36-20.89c0-.48,1.23-.89,1.71-.9s1.73.36,1.74.84l.36,20.9C451.38,93.21,450.14,93.62,449.66,93.63Z" transform="translate(-280.42 -23.88)"/><path class="cls-6" d="M442.76,93.74c-.48,0-1.73-.36-1.74-.84L440.66,72c0-.48,1.23-.89,1.71-.9s1.73.36,1.74.84l.36,20.89C444.48,93.32,443.24,93.73,442.76,93.74Z" transform="translate(-280.42 -23.88)"/><path class="cls-6" d="M444.38,77.73a1.36,1.36,0,0,1-1.22-.86A2.52,2.52,0,0,1,443,76l0-.24a.69.69,0,0,0-.1-.32.46.46,0,0,0-.15.13,1.49,1.49,0,0,0-.16.75l-1.3-.07a2.62,2.62,0,0,1,.38-1.42,1.47,1.47,0,0,1,1.82-.55,1.62,1.62,0,0,1,.81,1.32l0,.3a3.09,3.09,0,0,0,0,.35,7.25,7.25,0,0,0,.26-1.39,1.14,1.14,0,0,1,.27-.67,1,1,0,0,1,1.28-.1,2.47,2.47,0,0,1,1,1.63l.09.31a2.86,2.86,0,0,0,.43-1.78l1.3-.12a4.24,4.24,0,0,1-.78,2.86,1.09,1.09,0,0,1-2-.11,5.15,5.15,0,0,1-.28-.81c0-.12-.06-.22-.09-.31a7.88,7.88,0,0,1-.2.87,1.47,1.47,0,0,1-.79,1A1,1,0,0,1,444.38,77.73Z" transform="translate(-280.42 -23.88)"/><rect class="cls-7" x="437.34" y="93.03" width="17.63" height="4.14" rx="0.36" transform="translate(-281.98 -16.24) rotate(-0.98)"/><rect class="cls-8" x="437.41" y="97.17" width="17.63" height="4.14" rx="0.36" transform="translate(-282.05 -16.23) rotate(-0.98)"/><rect class="cls-7" x="437.48" y="101.3" width="17.63" height="4.14" rx="0.36" transform="translate(-282.12 -16.23) rotate(-0.98)"/><path class="cls-9" d="M431,55.85a1.8,1.8,0,0,1-1.17-.43,1.74,1.74,0,0,1-.17-2.46c10.19-11.73,24.35-6.36,24.49-6.31a1.75,1.75,0,0,1,1,2.26,1.73,1.73,0,0,1-2.25,1c-.52-.2-12.05-4.49-20.59,5.35A1.75,1.75,0,0,1,431,55.85Z" transform="translate(-280.42 -23.88)"/><path class="cls-9" d="M428.11,72a1.73,1.73,0,0,1-1.63-1.07,15.57,15.57,0,0,1,.41-12.37,1.74,1.74,0,0,1,3.1,1.6,12.15,12.15,0,0,0-.31,9.42,1.73,1.73,0,0,1-.92,2.28A1.85,1.85,0,0,1,428.11,72Z" transform="translate(-280.42 -23.88)"/><path class="cls-8" d="M316.41,93.83a15.94,15.94,0,1,0-31.87.27,15.74,15.74,0,0,0,6,12.52,12.51,12.51,0,0,1,5,9.61v.16l10.4-.18v0a12.44,12.44,0,0,1,4.7-9.76A15.82,15.82,0,0,0,316.41,93.83Z" transform="translate(-280.42 -23.88)"/><path class="cls-10" d="M303.48,115.6c-.36,0-1.29-.27-1.3-.62l-.27-15.61c0-.36.92-.66,1.28-.67s1.29.27,1.3.63l.27,15.6C304.76,115.29,303.84,115.6,303.48,115.6Z" transform="translate(-280.42 -23.88)"/><path class="cls-10" d="M298.33,115.69c-.36,0-1.29-.27-1.3-.63l-.27-15.6c0-.36.92-.66,1.28-.67s1.29.27,1.3.63l.27,15.6C299.61,115.38,298.69,115.69,298.33,115.69Z" transform="translate(-280.42 -23.88)"/><path class="cls-10" d="M299.54,103.73a1,1,0,0,1-.91-.63,2.23,2.23,0,0,1-.14-.68v-.17a.47.47,0,0,0-.08-.24s-.07,0-.1.09a1.17,1.17,0,0,0-.13.57l-1-.06a2.07,2.07,0,0,1,.29-1.06,1.1,1.1,0,0,1,1.36-.41,1.22,1.22,0,0,1,.6,1l0,.22a1.84,1.84,0,0,0,0,.26,5.07,5.07,0,0,0,.2-1,.79.79,0,0,1,.2-.5.76.76,0,0,1,1-.08,1.9,1.9,0,0,1,.74,1.22l.06.23a2.12,2.12,0,0,0,.33-1.33l1-.09a3.16,3.16,0,0,1-.59,2.13.89.89,0,0,1-1,.42.87.87,0,0,1-.51-.49,3.11,3.11,0,0,1-.2-.61l-.07-.23c0,.22-.09.44-.15.65a1.11,1.11,0,0,1-.59.77A.8.8,0,0,1,299.54,103.73Z" transform="translate(-280.42 -23.88)"/><rect class="cls-7" x="294.28" y="115.16" width="13.17" height="3.09" rx="0.36" transform="translate(-282.37 -18.72) rotate(-0.98)"/><rect class="cls-8" x="294.34" y="118.25" width="13.17" height="3.09" rx="0.36" transform="matrix(1, -0.02, 0.02, 1, -282.42, -18.72)"/><rect class="cls-7" x="294.39" y="121.34" width="13.17" height="3.09" rx="0.36" transform="translate(-282.48 -18.72) rotate(-0.98)"/><path class="cls-9" d="M289.54,87.39a1.29,1.29,0,0,1-.87-.31,1.31,1.31,0,0,1-.13-1.84c7.61-8.76,18.18-4.75,18.29-4.71a1.31,1.31,0,0,1,.73,1.69,1.29,1.29,0,0,1-1.68.73c-.39-.14-9-3.34-15.38,4A1.26,1.26,0,0,1,289.54,87.39Z" transform="translate(-280.42 -23.88)"/><path class="cls-9" d="M287.39,99.46a1.31,1.31,0,0,1-1.22-.79,11.64,11.64,0,0,1,.31-9.24,1.3,1.3,0,1,1,2.31,1.19,9.11,9.11,0,0,0-.22,7,1.31,1.31,0,0,1-.69,1.71A1.43,1.43,0,0,1,287.39,99.46Z" transform="translate(-280.42 -23.88)"/><path class="cls-8" d="M353.36,168.52a15.94,15.94,0,1,0-31.87.27,15.71,15.71,0,0,0,6,12.51,12.54,12.54,0,0,1,5,9.62v.16l10.4-.18v0a12.41,12.41,0,0,1,4.7-9.76A15.82,15.82,0,0,0,353.36,168.52Z" transform="translate(-280.42 -23.88)"/><path class="cls-10" d="M340.43,190.29c-.36,0-1.29-.27-1.3-.63l-.27-15.6c0-.36.92-.67,1.28-.67s1.29.27,1.3.63l.27,15.6C341.71,190,340.79,190.28,340.43,190.29Z" transform="translate(-280.42 -23.88)"/><path class="cls-10" d="M335.28,190.38c-.36,0-1.29-.27-1.3-.63l-.27-15.6c0-.36.92-.67,1.28-.67s1.29.27,1.3.62l.27,15.61C336.56,190.07,335.64,190.37,335.28,190.38Z" transform="translate(-280.42 -23.88)"/><path class="cls-10" d="M336.49,178.42a1,1,0,0,1-.91-.64,2.17,2.17,0,0,1-.14-.67v-.18a.41.41,0,0,0-.08-.23.32.32,0,0,0-.1.09,1.16,1.16,0,0,0-.13.56l-1,0a2,2,0,0,1,.29-1.06,1.1,1.1,0,0,1,1.36-.41,1.21,1.21,0,0,1,.6,1l0,.22a1.84,1.84,0,0,0,0,.26,5.07,5.07,0,0,0,.2-1,.72.72,0,0,1,1.16-.58,1.88,1.88,0,0,1,.74,1.21l.06.23a2.1,2.1,0,0,0,.33-1.33l1-.09a3.2,3.2,0,0,1-.59,2.14.82.82,0,0,1-1.51-.08,3.11,3.11,0,0,1-.2-.61c0-.08-.05-.16-.07-.22,0,.22-.09.43-.15.65a1.13,1.13,0,0,1-.59.77A.8.8,0,0,1,336.49,178.42Z" transform="translate(-280.42 -23.88)"/><rect class="cls-7" x="331.23" y="189.85" width="13.17" height="3.09" rx="0.36" transform="translate(-283.64 -18.08) rotate(-0.98)"/><rect class="cls-8" x="331.29" y="192.93" width="13.17" height="3.09" rx="0.36" transform="translate(-283.7 -18.07) rotate(-0.98)"/><rect class="cls-7" x="331.34" y="196.02" width="13.17" height="3.09" rx="0.36" transform="translate(-283.75 -18.07) rotate(-0.98)"/><path class="cls-9" d="M326.49,162.08a1.25,1.25,0,0,1-.87-.32,1.3,1.3,0,0,1-.13-1.83c7.61-8.76,18.18-4.75,18.29-4.71a1.3,1.3,0,0,1-.95,2.42c-.39-.15-9-3.35-15.38,4A1.3,1.3,0,0,1,326.49,162.08Z" transform="translate(-280.42 -23.88)"/><path class="cls-9" d="M324.34,174.15a1.31,1.31,0,0,1-1.22-.8,11.66,11.66,0,0,1,.31-9.24,1.3,1.3,0,0,1,2.31,1.2,9.1,9.1,0,0,0-.22,7,1.3,1.3,0,0,1-.69,1.7A1.45,1.45,0,0,1,324.34,174.15Z" transform="translate(-280.42 -23.88)"/><path class="cls-8" d="M546.77,51.61a15.94,15.94,0,1,0-31.88.27,15.74,15.74,0,0,0,6,12.52,12.55,12.55,0,0,1,5,9.61v.16l10.4-.18v0A12.44,12.44,0,0,1,541,64.2,15.86,15.86,0,0,0,546.77,51.61Z" transform="translate(-280.42 -23.88)"/><path class="cls-10" d="M533.83,73.38c-.36,0-1.29-.27-1.3-.63l-.26-15.6c0-.36.91-.66,1.27-.67s1.29.27,1.3.63l.27,15.6C535.11,73.07,534.19,73.38,533.83,73.38Z" transform="translate(-280.42 -23.88)"/><path class="cls-10" d="M528.68,73.47c-.36,0-1.29-.27-1.3-.63l-.26-15.6c0-.36.91-.66,1.27-.67s1.29.27,1.3.63L530,72.8C530,73.16,529,73.46,528.68,73.47Z" transform="translate(-280.42 -23.88)"/><path class="cls-10" d="M529.89,61.51a1,1,0,0,1-.91-.63,1.94,1.94,0,0,1-.13-.68l0-.17c0-.16-.06-.23-.08-.24s-.07,0-.1.09a1.17,1.17,0,0,0-.13.57l-1-.06a2.07,2.07,0,0,1,.29-1.06,1.1,1.1,0,0,1,1.36-.41,1.22,1.22,0,0,1,.6,1l0,.22a1,1,0,0,0,0,.26,5.85,5.85,0,0,0,.19-1,.85.85,0,0,1,.2-.5.75.75,0,0,1,1-.08,1.9,1.9,0,0,1,.74,1.22l.06.23a2.12,2.12,0,0,0,.33-1.33l1-.09a3.11,3.11,0,0,1-.59,2.13.89.89,0,0,1-1,.42.87.87,0,0,1-.51-.49,3.11,3.11,0,0,1-.2-.61l-.07-.23c0,.22-.09.44-.15.65a1.11,1.11,0,0,1-.59.77A.8.8,0,0,1,529.89,61.51Z" transform="translate(-280.42 -23.88)"/><rect class="cls-7" x="524.63" y="72.94" width="13.17" height="3.09" rx="0.36" transform="translate(-281.62 -14.79) rotate(-0.98)"/><rect class="cls-8" x="524.69" y="76.03" width="13.17" height="3.09" rx="0.36" transform="matrix(1, -0.02, 0.02, 1, -281.67, -14.78)"/><rect class="cls-7" x="524.74" y="79.12" width="13.17" height="3.09" rx="0.36" transform="translate(-281.72 -14.78) rotate(-0.98)"/><path class="cls-9" d="M519.89,45.17a1.29,1.29,0,0,1-.87-.31,1.31,1.31,0,0,1-.13-1.84c7.61-8.76,18.18-4.75,18.29-4.71a1.3,1.3,0,0,1-.95,2.42c-.39-.14-9-3.34-15.38,4A1.26,1.26,0,0,1,519.89,45.17Z" transform="translate(-280.42 -23.88)"/><path class="cls-9" d="M517.74,57.24a1.31,1.31,0,0,1-1.22-.79,11.64,11.64,0,0,1,.31-9.24,1.3,1.3,0,1,1,2.31,1.19,9.1,9.1,0,0,0-.22,7,1.31,1.31,0,0,1-.69,1.71A1.43,1.43,0,0,1,517.74,57.24Z" transform="translate(-280.42 -23.88)"/><path class="cls-8" d="M578.82,128.76A15.94,15.94,0,1,0,547,129a15.73,15.73,0,0,0,6,12.52,12.52,12.52,0,0,1,5,9.61v.16l10.4-.18v0a12.47,12.47,0,0,1,4.7-9.76A15.86,15.86,0,0,0,578.82,128.76Z" transform="translate(-280.42 -23.88)"/><path class="cls-10" d="M565.88,150.53c-.36,0-1.29-.27-1.29-.63l-.27-15.6c0-.36.92-.66,1.27-.67s1.3.27,1.3.63l.27,15.6C567.17,150.22,566.24,150.53,565.88,150.53Z" transform="translate(-280.42 -23.88)"/><path class="cls-10" d="M560.73,150.62c-.36,0-1.29-.27-1.3-.63l-.26-15.6c0-.36.92-.66,1.27-.67s1.3.27,1.3.63L562,150C562,150.31,561.09,150.61,560.73,150.62Z" transform="translate(-280.42 -23.88)"/><path class="cls-10" d="M561.94,138.66A1,1,0,0,1,561,138a1.94,1.94,0,0,1-.13-.68l0-.17a.13.13,0,1,0-.18-.15,1.16,1.16,0,0,0-.12.56l-1-.05a2.07,2.07,0,0,1,.29-1.06,1.11,1.11,0,0,1,1.36-.41,1.2,1.2,0,0,1,.6,1l0,.22a1.7,1.7,0,0,0,0,.26,7,7,0,0,0,.2-1,.83.83,0,0,1,.19-.5.75.75,0,0,1,1-.08,1.82,1.82,0,0,1,.74,1.22c0,.07,0,.15.07.23a2.17,2.17,0,0,0,.32-1.33l1-.09a3.16,3.16,0,0,1-.58,2.13.9.9,0,0,1-1,.42.83.83,0,0,1-.5-.49,4,4,0,0,1-.21-.61,1.25,1.25,0,0,0-.07-.23c0,.22-.09.44-.15.65a1.11,1.11,0,0,1-.59.77A.8.8,0,0,1,561.94,138.66Z" transform="translate(-280.42 -23.88)"/><rect class="cls-7" x="556.69" y="150.09" width="13.17" height="3.09" rx="0.36" transform="matrix(1, -0.02, 0.02, 1, -282.93, -14.23)"/><rect class="cls-8" x="556.74" y="153.18" width="13.17" height="3.09" rx="0.36" transform="translate(-282.98 -14.22) rotate(-0.98)"/><rect class="cls-7" x="556.79" y="156.27" width="13.17" height="3.09" rx="0.36" transform="translate(-283.04 -14.22) rotate(-0.98)"/><path class="cls-9" d="M552,122.32a1.29,1.29,0,0,1-1-2.15c7.61-8.76,18.18-4.75,18.29-4.71a1.3,1.3,0,1,1-1,2.42c-.38-.14-9-3.34-15.37,4A1.29,1.29,0,0,1,552,122.32Z" transform="translate(-280.42 -23.88)"/><path class="cls-9" d="M549.8,134.39a1.29,1.29,0,0,1-1.22-.79,11.55,11.55,0,0,1,.31-9.24,1.3,1.3,0,1,1,2.31,1.19,9.08,9.08,0,0,0-.23,7,1.31,1.31,0,0,1-.69,1.71A1.37,1.37,0,0,1,549.8,134.39Z" transform="translate(-280.42 -23.88)"/><path class="cls-8" d="M382.48,39.74a15.94,15.94,0,1,0-31.87.27,15.71,15.71,0,0,0,6,12.52,12.54,12.54,0,0,1,5,9.61v.16l10.4-.18v0a12.45,12.45,0,0,1,4.71-9.76A15.85,15.85,0,0,0,382.48,39.74Z" transform="translate(-280.42 -23.88)"/><path class="cls-10" d="M369.55,61.51c-.36,0-1.3-.27-1.3-.63L368,45.28c0-.36.92-.66,1.28-.67s1.29.27,1.3.63l.26,15.6C370.83,61.2,369.91,61.51,369.55,61.51Z" transform="translate(-280.42 -23.88)"/><path class="cls-10" d="M364.4,61.6c-.36,0-1.3-.27-1.3-.63l-.27-15.6c0-.36.92-.66,1.28-.67s1.29.27,1.3.63l.26,15.6C365.68,61.29,364.75,61.59,364.4,61.6Z" transform="translate(-280.42 -23.88)"/><path class="cls-10" d="M365.61,49.64a1,1,0,0,1-.92-.64,1.85,1.85,0,0,1-.13-.67l0-.17a.41.41,0,0,0-.07-.24.53.53,0,0,0-.11.09,1.16,1.16,0,0,0-.12.56l-1,0a2,2,0,0,1,.3-1.06,1.09,1.09,0,0,1,1.35-.41,1.2,1.2,0,0,1,.6,1l0,.22c0,.1,0,.19,0,.26a5.86,5.86,0,0,0,.2-1,.79.79,0,0,1,.2-.5.75.75,0,0,1,1-.08,1.84,1.84,0,0,1,.73,1.22c0,.07,0,.15.07.23A2.17,2.17,0,0,0,368,47l1-.09a3.17,3.17,0,0,1-.58,2.13.9.9,0,0,1-1,.42.86.86,0,0,1-.5-.49,4,4,0,0,1-.21-.61c0-.09,0-.16-.06-.23,0,.22-.1.44-.16.65a1.08,1.08,0,0,1-.59.77A.79.79,0,0,1,365.61,49.64Z" transform="translate(-280.42 -23.88)"/><rect class="cls-7" x="360.35" y="61.07" width="13.17" height="3.09" rx="0.36" transform="translate(-281.44 -17.6) rotate(-0.98)"/><rect class="cls-8" x="360.4" y="64.16" width="13.17" height="3.09" rx="0.36" transform="matrix(1, -0.02, 0.02, 1, -281.49, -17.6)"/><rect class="cls-7" x="360.45" y="67.24" width="13.17" height="3.09" rx="0.36" transform="matrix(1, -0.02, 0.02, 1, -281.54, -17.59)"/><path class="cls-9" d="M355.61,33.3a1.34,1.34,0,0,1-.88-.31,1.31,1.31,0,0,1-.13-1.84c7.61-8.76,18.19-4.75,18.29-4.71a1.3,1.3,0,1,1-.95,2.42c-.38-.15-9-3.35-15.37,4A1.27,1.27,0,0,1,355.61,33.3Z" transform="translate(-280.42 -23.88)"/><path class="cls-9" d="M353.46,45.37a1.29,1.29,0,0,1-1.22-.79,11.55,11.55,0,0,1,.31-9.24,1.3,1.3,0,0,1,2.31,1.19,9.08,9.08,0,0,0-.23,7,1.31,1.31,0,0,1-.69,1.71A1.37,1.37,0,0,1,353.46,45.37Z" transform="translate(-280.42 -23.88)"/><path class="cls-3" d="M401.27,198.53h0a26.66,26.66,0,0,1-4.3-.43.72.72,0,0,1-.51-.82.59.59,0,0,1,.7-.46,31.39,31.39,0,0,0,4.14.44.6.6,0,0,1,.6.6A.68.68,0,0,1,401.27,198.53Zm4.24-.3a.61.61,0,0,1-.07-1.22,36.76,36.76,0,0,0,4.12-.66.61.61,0,0,1,.26,1.2,36.82,36.82,0,0,1-4.25.68Zm-12.58-1.16a.63.63,0,0,1-.19,0,27,27,0,0,1-3.32-1.26l-.7-.33a.61.61,0,1,1,.54-1.1l.67.32a27.43,27.43,0,0,0,3.18,1.2.62.62,0,0,1,.4.77A.61.61,0,0,1,392.93,197.07Zm20.84-.65a.62.62,0,0,1-.58-.41.61.61,0,0,1,.38-.78,37.39,37.39,0,0,0,3.88-1.56.62.62,0,0,1,.51,1.12,39.52,39.52,0,0,1-4,1.6A.69.69,0,0,1,413.77,196.42Zm-28.41-3.1a.62.62,0,0,1-.36-.12,27.39,27.39,0,0,1-3.29-2.82.6.6,0,0,1,0-.86.62.62,0,0,1,.87,0,26.57,26.57,0,0,0,3.14,2.69.61.61,0,0,1,.14.86A.63.63,0,0,1,385.36,193.32Zm36.09-.47a.62.62,0,0,1-.53-.3.61.61,0,0,1,.21-.84c1.17-.7,2.34-1.49,3.48-2.32a.61.61,0,0,1,.72,1,42.57,42.57,0,0,1-3.57,2.38A.61.61,0,0,1,421.45,192.85Zm-55.46.06a.62.62,0,0,1-.05-1.23,21.41,21.41,0,0,0,4-.73.61.61,0,0,1,.76.41.62.62,0,0,1-.42.76,21.63,21.63,0,0,1-4.28.78Zm-4.23-.09h-.08a20,20,0,0,1-2.89-.57.62.62,0,0,1-.43-.76.61.61,0,0,1,.76-.42,18.82,18.82,0,0,0,2.71.53.61.61,0,0,1,.53.69A.6.6,0,0,1,361.76,192.82Zm12.32-2.25a.61.61,0,0,1-.54-.33.6.6,0,0,1,.25-.82,18.21,18.21,0,0,0,3.39-2.3.62.62,0,0,1,.87.07.61.61,0,0,1-.07.86,19.34,19.34,0,0,1-3.62,2.45A.55.55,0,0,1,374.08,190.57Zm54.19-2.73a.61.61,0,0,1-.4-1.07c1-.91,2.05-1.88,3-2.89a.62.62,0,1,1,.88.86c-1,1-2.06,2-3.11,2.95A.63.63,0,0,1,428.27,187.84Zm-48.86-.51a.6.6,0,0,1-.5-.25,26.73,26.73,0,0,1-2.23-3.72.61.61,0,0,1,1.1-.54,25.18,25.18,0,0,0,2.13,3.54.62.62,0,0,1-.14.86A.59.59,0,0,1,379.41,187.33Zm1-2.33a.51.51,0,0,1-.31-.09.56.56,0,0,1-.19-.79L380,184a14.73,14.73,0,0,0,1.8-3.47.62.62,0,0,1,1.16.41,16.09,16.09,0,0,1-2,3.76A.72.72,0,0,1,380.44,185Zm53.76-3.21a.62.62,0,0,1-.4-.15.61.61,0,0,1-.07-.86c.89-1.05,1.77-2.16,2.61-3.29a.62.62,0,1,1,1,.73c-.86,1.15-1.76,2.28-2.66,3.35A.63.63,0,0,1,434.2,181.79Zm-58.5-2a.61.61,0,0,1-.59-.45,22.78,22.78,0,0,1-.81-4.27.62.62,0,0,1,.56-.67.61.61,0,0,1,.66.56,21.93,21.93,0,0,0,.76,4,.6.6,0,0,1-.41.76Zm7.36-3.18c-.33,0-.6,0-.61-.29a5.18,5.18,0,0,0-.27-1.3,6.56,6.56,0,0,0-1-2,.66.66,0,0,1,.14-.9.61.61,0,0,1,.85.09,7,7,0,0,1,1.15,2.29,8.19,8.19,0,0,1,.31,1.78c0,.34-.24.35-.58.35ZM439.27,175a.52.52,0,0,1-.34-.1.62.62,0,0,1-.18-.85c.76-1.15,1.51-2.35,2.23-3.57a.63.63,0,0,1,.84-.22.62.62,0,0,1,.22.84c-.73,1.24-1.49,2.46-2.26,3.63A.6.6,0,0,1,439.27,175ZM375,171.36h-.08a.61.61,0,0,1-.53-.69c0-.29.08-.59.13-.88a.62.62,0,0,1,.43-.49,5.92,5.92,0,0,1,3.69.17.61.61,0,0,1-.42,1.15,4.63,4.63,0,0,0-2.56-.23l-.06.44A.6.6,0,0,1,375,171.36Z" transform="translate(-280.42 -23.88)"/><polygon class="cls-3" points="73.05 165.2 82.27 165.45 79.01 167.83 79.45 171.84 73.05 165.2"/><path class="cls-3" d="M531.71,216.49h-.53l-.89-.07a.61.61,0,0,1-.54-.68.62.62,0,0,1,.67-.54q.41,0,.81.06a11.56,11.56,0,0,0,3.2-.31.61.61,0,0,1,.28,1.19A13.35,13.35,0,0,1,531.71,216.49Zm-5.4-1.25a.66.66,0,0,1-.27-.06,15,15,0,0,1-3.62-2.5.61.61,0,1,1,.83-.9,14.08,14.08,0,0,0,3.33,2.3.61.61,0,0,1,.28.82A.62.62,0,0,1,526.31,215.24Zm12.18-.65a.61.61,0,0,1-.31-1.14,16.61,16.61,0,0,0,3.25-2.47.62.62,0,0,1,.87,0,.62.62,0,0,1,0,.87,18.27,18.27,0,0,1-3.49,2.65A.68.68,0,0,1,538.49,214.59Zm-18.37-5a.6.6,0,0,1-.51-.28,18.86,18.86,0,0,1-2-3.92.62.62,0,0,1,1.16-.41,17.56,17.56,0,0,0,1.81,3.66.6.6,0,0,1-.18.85A.56.56,0,0,1,520.12,209.6Zm24.42-.84a.58.58,0,0,1-.33-.1.6.6,0,0,1-.18-.85c.3-.47.58-1,.84-1.45a21,21,0,0,0,1-2.22.62.62,0,0,1,.78-.36.62.62,0,0,1,.37.79,20.67,20.67,0,0,1-1,2.35c-.27.53-.58,1.05-.9,1.56A.63.63,0,0,1,544.54,208.76Zm-27.25-7.07a.62.62,0,0,1-.61-.55,14.52,14.52,0,0,1-.1-1.47v-.38a21.12,21.12,0,0,1,.14-2.51.61.61,0,0,1,.67-.55.62.62,0,0,1,.54.68,23.72,23.72,0,0,0-.13,2.38v.35c0,.46,0,.91.08,1.37a.6.6,0,0,1-.54.67Zm30.2-.81h-.1a.62.62,0,0,1-.51-.7,21.13,21.13,0,0,0,.26-3.28c0-.27,0-.55,0-.83a.61.61,0,0,1,.58-.64.64.64,0,0,1,.64.59c0,.29,0,.59,0,.88a22.44,22.44,0,0,1-.27,3.47A.61.61,0,0,1,547.49,200.88Zm-29.32-7.57-.17,0a.61.61,0,0,1-.42-.76,31.34,31.34,0,0,1,1.53-4,.62.62,0,0,1,1.12.51,28.92,28.92,0,0,0-1.47,3.88A.62.62,0,0,1,518.17,193.31Zm29-.85a.61.61,0,0,1-.59-.46,23.86,23.86,0,0,0-1.38-3.89.61.61,0,0,1,.31-.81.6.6,0,0,1,.81.3,24.48,24.48,0,0,1,1.44,4.1.6.6,0,0,1-.44.74Zm-25.45-6.85a.62.62,0,0,1-.32-.09.61.61,0,0,1-.2-.84c.72-1.18,1.53-2.37,2.41-3.56a.61.61,0,0,1,1,.73c-.86,1.16-1.65,2.32-2.35,3.47A.59.59,0,0,1,521.67,185.61Zm22-.87a.6.6,0,0,1-.51-.28l-.1-.15a33.13,33.13,0,0,0-2.33-3.24.62.62,0,0,1,.1-.87.61.61,0,0,1,.86.1,34.32,34.32,0,0,1,2.41,3.36l.09.14a.62.62,0,0,1-.19.85A.63.63,0,0,1,543.69,184.74Zm-17-5.94a.6.6,0,0,1-.4-.15.6.6,0,0,1-.06-.86c.92-1.07,1.89-2.13,2.89-3.15a.61.61,0,0,1,.88.85c-1,1-1.94,2-2.85,3.1A.6.6,0,0,1,526.71,178.8Zm11.67-.64A.61.61,0,0,1,538,178a39.44,39.44,0,0,0-3.13-2.75.61.61,0,0,1-.11-.86.62.62,0,0,1,.86-.1,38.49,38.49,0,0,1,3.24,2.84.6.6,0,0,1,0,.86A.59.59,0,0,1,538.38,178.16Zm-6.65-5.23a.66.66,0,0,1-.33-.09,38.16,38.16,0,0,0-3.65-2,.61.61,0,0,1,.54-1.1,40.48,40.48,0,0,1,3.76,2.09l0,0a1,1,0,0,1,.13-.16c1-.95,2.13-1.89,3.23-2.79a.63.63,0,0,1,.87.09.62.62,0,0,1-.09.86c-1.09.89-2.16,1.81-3.19,2.75a.6.6,0,0,1-.77,0v0A.61.61,0,0,1,531.73,172.93Zm-7.61-3.72a.52.52,0,0,1-.21,0,40.84,40.84,0,0,0-4-1.24.61.61,0,1,1,.31-1.18,41.19,41.19,0,0,1,4.1,1.27.61.61,0,0,1,.37.78A.62.62,0,0,1,524.12,169.21Zm15.08-1.83a.63.63,0,0,1-.5-.25.61.61,0,0,1,.14-.86c1-.75,2.13-1.49,3.21-2.19l.33-.21a.62.62,0,0,1,.84.19.61.61,0,0,1-.19.85l-.32.2c-1.06.69-2.12,1.41-3.16,2.16A.63.63,0,0,1,539.2,167.38Zm-35.94,0a.61.61,0,0,1-.12-1.21,36.22,36.22,0,0,1,4.27-.59.61.61,0,1,1,.1,1.22,35.66,35.66,0,0,0-4.13.57Zm12.66-.29h-.09a39,39,0,0,0-4.15-.37.61.61,0,0,1-.59-.63.61.61,0,0,1,.63-.59,39,39,0,0,1,4.29.38.61.61,0,0,1-.09,1.22Z" transform="translate(-280.42 -23.88)"/><polygon class="cls-3" points="270.76 136.8 264.05 143.13 264.68 139.14 261.54 136.62 270.76 136.8"/><path class="cls-3" d="M446.16,117.35c-.82,0-1.63,0-2.44-.07a.6.6,0,0,1-.58-.64.61.61,0,0,1,.65-.58,41.42,41.42,0,0,0,4.17,0,.62.62,0,0,1,.64.58.6.6,0,0,1-.58.64C447.4,117.33,446.79,117.35,446.16,117.35Zm6-.45a.61.61,0,0,1-.09-1.22,38,38,0,0,0,4.09-.82.63.63,0,0,1,.75.45.61.61,0,0,1-.45.74,40.19,40.19,0,0,1-4.21.84Zm-12.67-.06h-.09a42.49,42.49,0,0,1-4.21-.88.61.61,0,1,1,.31-1.19c1.34.35,2.71.64,4.09.86a.61.61,0,0,1-.1,1.21Zm20.87-2a.61.61,0,0,1-.57-.41.6.6,0,0,1,.36-.78c1.3-.48,2.59-1,3.85-1.63a.6.6,0,0,1,.81.28.61.61,0,0,1-.28.82,41.59,41.59,0,0,1-4,1.68A.78.78,0,0,1,460.41,114.83Zm-29.05-.14a.54.54,0,0,1-.22,0c-1.34-.5-2.66-1.08-3.94-1.71a.61.61,0,0,1-.28-.82.62.62,0,0,1,.82-.28,40.68,40.68,0,0,0,3.83,1.67.61.61,0,0,1-.21,1.18ZM468,111.13a.59.59,0,0,1-.52-.29.61.61,0,0,1,.2-.84,40.93,40.93,0,0,0,3.43-2.37.62.62,0,0,1,.86.11.61.61,0,0,1-.11.86,41.14,41.14,0,0,1-3.54,2.44A.62.62,0,0,1,468,111.13Zm-44.25-.2a.63.63,0,0,1-.33-.09c-1.21-.76-2.4-1.6-3.52-2.47a.62.62,0,0,1,.76-1c1.09.85,2.24,1.66,3.41,2.4a.61.61,0,0,1,.19.85A.6.6,0,0,1,423.78,110.93Zm51-4.94a.61.61,0,0,1-.42-1.06c1-1,2-2,2.89-3a.62.62,0,0,1,.86-.07.61.61,0,0,1,.06.87,41.37,41.37,0,0,1-3,3.1A.68.68,0,0,1,474.75,106Zm-57.64-.27a.59.59,0,0,1-.43-.17c-1-1-2-2-2.95-3.12a.62.62,0,0,1,.07-.87.61.61,0,0,1,.86.07,41.24,41.24,0,0,0,2.87,3,.61.61,0,0,1,0,.86A.59.59,0,0,1,417.11,105.72ZM480.3,99.6a.69.69,0,0,1-.36-.11.62.62,0,0,1-.14-.86c.8-1.14,1.55-2.33,2.23-3.53a.61.61,0,0,1,1.07.6,42,42,0,0,1-2.3,3.64A.61.61,0,0,1,480.3,99.6Zm-68.69-.31a.61.61,0,0,1-.5-.27,41.82,41.82,0,0,1-2.27-3.65.62.62,0,0,1,.24-.84.61.61,0,0,1,.83.25c.67,1.21,1.41,2.4,2.2,3.54a.61.61,0,0,1-.15.86A.66.66,0,0,1,411.61,99.29Zm72.85-7.06a.74.74,0,0,1-.25,0,.61.61,0,0,1-.31-.81,41.6,41.6,0,0,0,1.47-3.9.61.61,0,0,1,.77-.4.62.62,0,0,1,.4.77c-.44,1.36-1,2.71-1.52,4A.62.62,0,0,1,484.46,92.23Zm-76.94-.35a.6.6,0,0,1-.56-.38c-.56-1.31-1.06-2.66-1.49-4a.61.61,0,0,1,.41-.77.6.6,0,0,1,.76.4c.42,1.33.9,2.65,1.44,3.92a.62.62,0,0,1-.32.81A.69.69,0,0,1,407.52,91.88ZM487,84.17h-.13a.62.62,0,0,1-.47-.73,38.36,38.36,0,0,0,.65-4.12.62.62,0,0,1,.68-.55.61.61,0,0,1,.54.68c-.15,1.42-.38,2.85-.67,4.24A.62.62,0,0,1,487,84.17Zm-82-.38a.61.61,0,0,1-.6-.49c-.28-1.4-.5-2.83-.64-4.25a.62.62,0,0,1,.55-.67.6.6,0,0,1,.67.55c.14,1.38.35,2.77.62,4.13a.61.61,0,0,1-.48.72Zm82.93-8.46h0c-.34,0-.61-.07-.61-.4v-.27a37.64,37.64,0,0,0-.22-4.12.59.59,0,0,1,.55-.65.61.61,0,0,1,.67.56c.15,1.41.22,2.86.23,4.29v.19C488.55,75.27,488.28,75.33,487.94,75.33Zm-83.76.2h0a.69.69,0,0,1-.61-.69c0-1.44.08-2.91.22-4.33a.64.64,0,0,1,.68-.57.59.59,0,0,1,.54.65c-.14,1.38-.21,2.86-.21,4.25A.7.7,0,0,1,404.18,75.53ZM487.08,67a.61.61,0,0,1-.6-.49c-.28-1.36-.64-2.72-1.05-4a.6.6,0,0,1,.4-.77.62.62,0,0,1,.77.4c.42,1.36.79,2.76,1.08,4.16a.62.62,0,0,1-.48.73Zm-82,0h-.13a.61.61,0,0,1-.47-.72,42.33,42.33,0,0,1,1.08-4.16.61.61,0,1,1,1.17.37,39.93,39.93,0,0,0-1.05,4A.62.62,0,0,1,405.05,67Zm79.48-8.07a.62.62,0,0,1-.56-.37c-.55-1.27-1.17-2.53-1.85-3.75a.61.61,0,0,1,1.07-.59,41.63,41.63,0,0,1,1.9,3.85.61.61,0,0,1-.32.81A.64.64,0,0,1,484.53,58.88Zm-76.94,0a.52.52,0,0,1-.24-.05A.61.61,0,0,1,407,58c.57-1.31,1.21-2.61,1.9-3.86a.61.61,0,0,1,1.07.6c-.67,1.21-1.29,2.47-1.84,3.74A.62.62,0,0,1,407.59,58.88Zm72.82-7.39a.62.62,0,0,1-.51-.26,40.45,40.45,0,0,0-2.56-3.3.62.62,0,0,1,.07-.87.61.61,0,0,1,.86.07c.94,1.09,1.82,2.23,2.64,3.39a.62.62,0,0,1-.15.86A.66.66,0,0,1,480.41,51.49Zm-68.69,0a.56.56,0,0,1-.35-.11.61.61,0,0,1-.16-.85c.82-1.17,1.71-2.31,2.64-3.4a.63.63,0,0,1,.87-.06.61.61,0,0,1,.06.86c-.91,1.06-1.77,2.17-2.56,3.3A.61.61,0,0,1,411.72,51.49Zm63.16-6.41a.63.63,0,0,1-.42-.17,41.27,41.27,0,0,0-3.17-2.72.61.61,0,0,1,.75-1c1.13.88,2.23,1.82,3.26,2.8a.62.62,0,0,1,0,.87A.64.64,0,0,1,474.88,45.08Zm-57.64,0a.59.59,0,0,1-.44-.19.61.61,0,0,1,0-.87c1-1,2.13-1.92,3.26-2.8a.63.63,0,0,1,.86.11.61.61,0,0,1-.11.86c-1.09.85-2.16,1.77-3.17,2.72A.63.63,0,0,1,417.24,45.08Zm50.95-5.18a.66.66,0,0,1-.33-.09,38.16,38.16,0,0,0-3.65-2,.61.61,0,0,1,.54-1.1,41.81,41.81,0,0,1,3.76,2.09.6.6,0,0,1,.2.84A.61.61,0,0,1,468.19,39.9Zm-44.25,0a.61.61,0,0,1-.33-1.13,40.48,40.48,0,0,1,3.76-2.09.61.61,0,1,1,.54,1.1,40.47,40.47,0,0,0-3.65,2A.62.62,0,0,1,423.94,39.9Zm36.65-3.73a.52.52,0,0,1-.21,0,39.21,39.21,0,0,0-4-1.24.63.63,0,0,1-.44-.75.62.62,0,0,1,.75-.44c1.38.36,2.76.79,4.1,1.28a.61.61,0,0,1,.36.79A.6.6,0,0,1,460.59,36.17Zm-29,0a.61.61,0,0,1-.58-.4.6.6,0,0,1,.36-.78,42.34,42.34,0,0,1,4.1-1.29.61.61,0,0,1,.31,1.19,37.43,37.43,0,0,0-4,1.25Zm20.86-2.11h-.1c-1.36-.2-2.76-.34-4.15-.41a.62.62,0,0,1,.06-1.23c1.43.07,2.87.22,4.28.43a.61.61,0,0,1,.51.7A.62.62,0,0,1,452.4,34.06Zm-12.67,0a.61.61,0,0,1-.09-1.22c1.4-.21,2.84-.36,4.27-.43a.6.6,0,0,1,.65.58.63.63,0,0,1-.59.65c-1.39.07-2.79.21-4.15.41Z" transform="translate(-280.42 -23.88)"/><path class="cls-3" d="M488.56,149.47a.61.61,0,0,1-.21-1.19c1.31-.5,2.63-1,3.93-1.54a.62.62,0,0,1,.8.34.61.61,0,0,1-.34.8c-1.31.54-2.64,1.05-4,1.55A.78.78,0,0,1,488.56,149.47Zm7.84-3.25a.63.63,0,0,1-.56-.35.61.61,0,0,1,.29-.81c1.35-.65,2.56-1.3,3.68-2a.61.61,0,0,1,.84.21.61.61,0,0,1-.2.84,42.81,42.81,0,0,1-3.79,2A.58.58,0,0,1,496.4,146.22Zm7.2-4.43a.63.63,0,0,1-.48-.23.62.62,0,0,1,.09-.86l.46-.38a21.77,21.77,0,0,0,2.49-2.5.61.61,0,0,1,.86-.07.62.62,0,0,1,.08.86,22.78,22.78,0,0,1-2.64,2.65l-.47.39A.64.64,0,0,1,503.6,141.79Zm5.42-6.45a.62.62,0,0,1-.29-.07.6.6,0,0,1-.24-.83,16.7,16.7,0,0,0,1.5-3.79.61.61,0,0,1,.75-.44.6.6,0,0,1,.44.74,17.9,17.9,0,0,1-1.62,4.07A.62.62,0,0,1,509,135.34Zm-1.83-1.74h-.05a20.85,20.85,0,0,1-4.29-.8.62.62,0,0,1-.41-.77.63.63,0,0,1,.77-.41,18.43,18.43,0,0,0,4,.75.63.63,0,0,1,.57.66A.62.62,0,0,1,507.19,133.6Zm4.23-.08a.61.61,0,0,1-.07-1.22,22.83,22.83,0,0,0,4-.83.63.63,0,0,1,.77.42.62.62,0,0,1-.42.76,26.28,26.28,0,0,1-4.25.87Zm8.1-2.38a.63.63,0,0,1-.56-.35.62.62,0,0,1,.29-.82,24.2,24.2,0,0,0,3.54-2.12.63.63,0,0,1,.86.14.62.62,0,0,1-.14.86,24.47,24.47,0,0,1-3.73,2.22A.48.48,0,0,1,519.52,131.14Zm-20.37,0a.58.58,0,0,1-.35-.11,14.55,14.55,0,0,1-3.41-2.71.61.61,0,1,1,.9-.83,13.42,13.42,0,0,0,3.16,2.5l.1.07a.61.61,0,0,1-.4,1.08ZM511,127.28a.65.65,0,0,1-.61-.62c0-.37-.05-.88-.1-1.25a10.08,10.08,0,0,0-.79-2.71.55.55,0,0,1,.31-.76.63.63,0,0,1,.81.35,11.75,11.75,0,0,1,.88,3.16,11.21,11.21,0,0,1,.12,1.15.65.65,0,0,1-.59.68Zm15.33-1.07a.62.62,0,0,1-.44-.18.63.63,0,0,1,0-.87,28.4,28.4,0,0,0,2.72-3.13.61.61,0,0,1,1,.74A31.81,31.81,0,0,1,526.8,126,.6.6,0,0,1,526.37,126.21Zm-32.64-1.33a.61.61,0,0,1-.59-.45,8.2,8.2,0,0,1-.33-2.3,7.8,7.8,0,0,1,.31-2.23.63.63,0,0,1,.77-.41.62.62,0,0,1,.41.77,6.34,6.34,0,0,0-.27,1.86,7,7,0,0,0,.29,2,.61.61,0,0,1-.42.75Zm14-5.28a.59.59,0,0,1-.44-.19,11,11,0,0,0-3.23-2.36.61.61,0,1,1,.53-1.1,12.19,12.19,0,0,1,3.59,2.61.62.62,0,0,1-.45,1Zm23.72-.13a.68.68,0,0,1-.31-.08.62.62,0,0,1-.23-.84,37,37,0,0,0,1.86-3.73.62.62,0,0,1,.81-.32.61.61,0,0,1,.32.8,39.64,39.64,0,0,1-1.92,3.86A.62.62,0,0,1,531.47,119.47Zm-35.24-2.07a.61.61,0,0,1-.33-1.13,8.11,8.11,0,0,1,2.6-1.07,8.44,8.44,0,0,1,1.73-.21.59.59,0,0,1,.63.59.62.62,0,0,1-.6.63,7.5,7.5,0,0,0-1.49.19,7.15,7.15,0,0,0-2.22.9A.55.55,0,0,1,496.23,117.4Zm38.6-5.7a.57.57,0,0,1-.18,0,.61.61,0,0,1-.4-.77c.41-1.3.78-2.66,1.09-4a.61.61,0,0,1,1.19.27c-.31,1.42-.69,2.81-1.11,4.15A.62.62,0,0,1,534.83,111.7Zm1.86-8.26h-.08a.61.61,0,0,1-.53-.69c.2-1.44.34-2.84.4-4.16a.62.62,0,1,1,1.23.06c-.07,1.35-.21,2.79-.41,4.27A.62.62,0,0,1,536.69,103.44Zm.36-9.23c-.32,0-.59.12-.61-.2-.06-.8-.15-1.25-.26-2a.62.62,0,0,1,.51-.72.56.56,0,0,1,.7.43c.12.8.21,1.4.27,2.23,0,.34-.23.27-.56.27Z" transform="translate(-280.42 -23.88)"/><polygon class="cls-3" points="254.68 62.27 260.28 69.6 256.38 68.56 253.55 71.42 254.68 62.27"/><path class="cls-3" d="M461.15,141.8a.45.45,0,0,1-.2,0l-1.9-.66a.64.64,0,0,1-.39-.44l.62-.19.18-.53,1.89.67a.61.61,0,0,1,.38.78A.62.62,0,0,1,461.15,141.8ZM458.34,137a.61.61,0,0,1-.6-.49c-.3-1.38-.59-2.76-.88-4.15a.62.62,0,0,1,1.21-.25c.28,1.39.57,2.77.87,4.15a.62.62,0,0,1-.48.73Zm-1.71-8.31a.62.62,0,0,1-.6-.49c-.27-1.39-.53-2.78-.79-4.17a.61.61,0,1,1,1.2-.23c.26,1.39.53,2.78.8,4.16a.62.62,0,0,1-.49.72Zm-1.54-8.33a.61.61,0,0,1-.6-.51c-.25-1.4-.49-2.79-.72-4.19a.61.61,0,0,1,.51-.7.6.6,0,0,1,.7.5c.23,1.39.47,2.79.71,4.18a.61.61,0,0,1-.5.71Z" transform="translate(-280.42 -23.88)"/><path class="cls-3" d="M444.87,145.77a.59.59,0,0,1-.55-.34c-.62-1.26-1.24-2.53-1.89-3.78a.61.61,0,0,1,.26-.83.62.62,0,0,1,.83.26c.65,1.26,1.28,2.54,1.9,3.81a.62.62,0,0,1-.28.82A.66.66,0,0,1,444.87,145.77ZM413,140.24h-.1a11.73,11.73,0,0,1-4.16-1.59.61.61,0,0,1-.2-.84.62.62,0,0,1,.85-.2,10.31,10.31,0,0,0,3.71,1.42.61.61,0,0,1-.1,1.22Zm4.21-.11a.62.62,0,0,1-.16-1.21,6.35,6.35,0,0,0,.7-.23,6.11,6.11,0,0,0,2.48-1.84.61.61,0,0,1,.94.78,7.29,7.29,0,0,1-3,2.2,8.09,8.09,0,0,1-.83.28Zm23.68-1.84a.63.63,0,0,1-.53-.3,33.71,33.71,0,0,0-2.38-3.41.62.62,0,0,1,1-.77,37.59,37.59,0,0,1,2.47,3.54.62.62,0,0,1-.2.84A.57.57,0,0,1,440.9,138.29Zm-34.8-2.52a.62.62,0,0,1-.53-.3,6.29,6.29,0,0,1-.88-3.16,5.92,5.92,0,0,1,.05-.84c0-.18.06-.35.1-.53a.61.61,0,1,1,1.19.27c0,.14,0,.28-.07.42a5.19,5.19,0,0,0,0,.68,5.07,5.07,0,0,0,.72,2.54.61.61,0,0,1-.23.84A.54.54,0,0,1,406.1,135.77Zm16.42-1.71h-.13a.62.62,0,0,1-.47-.73,8.76,8.76,0,0,0,.2-1.9c0-.17,0-.34,0-.5a11.57,11.57,0,0,0-.22-1.55.61.61,0,1,1,1.2-.26,13.07,13.07,0,0,1,.24,1.73c0,.19,0,.38,0,.57a10.59,10.59,0,0,1-.23,2.17A.63.63,0,0,1,422.52,134.06Zm13.05-2.33a.63.63,0,0,1-.41-.15q-.57-.5-1.17-1a19.44,19.44,0,0,0-2.18-1.42.63.63,0,0,1-.23-.84.62.62,0,0,1,.84-.23,20.47,20.47,0,0,1,2.31,1.52c.43.32.84.66,1.24,1a.6.6,0,0,1,0,.86A.6.6,0,0,1,435.57,131.73Zm-27.84-3.49a.63.63,0,0,1-.48-.24.61.61,0,0,1,.11-.86,11.65,11.65,0,0,1,4-1.91.61.61,0,0,1,.33,1.18,10.62,10.62,0,0,0-3.61,1.7A.64.64,0,0,1,407.73,128.24Zm20.53-.7a.76.76,0,0,1-.21,0,28.18,28.18,0,0,0-4-1.07.61.61,0,0,1-.49-.72.6.6,0,0,1,.72-.48,29.38,29.38,0,0,1,4.18,1.11.61.61,0,0,1-.2,1.19ZM421,126c-.2,0-.4,0-.51-.18-.13.16-.34.45-.54.44-1-.08-2,.24-3.07.24h-.23c-.29,0-.58-.37-.87-.36s-.62-.61-.64-1a.63.63,0,0,1,.59-.65c.3,0,.61,0,.91,0h.25c1,0,2,.07,3,.14a22.17,22.17,0,0,0-1.82-2.38.61.61,0,0,1,.07-.86.6.6,0,0,1,.86.06A22.37,22.37,0,0,1,421.5,125a.62.62,0,0,1-.24.84C421.17,125.89,421.07,126,421,126Zm-5.46-6.52a.6.6,0,0,1-.4-.15,32.79,32.79,0,0,0-3.31-2.53.61.61,0,0,1-.17-.85.6.6,0,0,1,.85-.16,32.54,32.54,0,0,1,3.43,2.61.62.62,0,0,1,.06.87A.6.6,0,0,1,415.51,119.48Zm-7-4.74a.6.6,0,0,1-.29-.08c-1.19-.63-2.46-1.23-3.78-1.79a.61.61,0,0,1-.33-.8.61.61,0,0,1,.81-.33c1.35.58,2.65,1.19,3.87,1.84a.62.62,0,0,1,.26.83A.64.64,0,0,1,408.51,114.74Zm-7.79-3.35a.69.69,0,0,1-.2,0c-1.27-.44-2.58-.86-4-1.27a.61.61,0,1,1,.34-1.18c1.45.42,2.78.84,4.07,1.29a.61.61,0,0,1-.2,1.19ZM392.59,109l-.15,0c-1.37-.34-2.74-.67-4.12-1a.61.61,0,0,1-.45-.74.59.59,0,0,1,.73-.45c1.38.32,2.76.65,4.13,1a.61.61,0,0,1-.14,1.21Zm-8.25-2-.15,0c-1.38-.32-2.76-.65-4.13-1a.62.62,0,0,1-.44-.75.61.61,0,0,1,.74-.44c1.37.35,2.74.67,4.11,1a.6.6,0,0,1,.46.73A.64.64,0,0,1,384.34,107.06ZM376.12,105a.51.51,0,0,1-.17,0c-1.46-.42-2.79-.85-4.07-1.3a.61.61,0,0,1-.38-.78.63.63,0,0,1,.79-.38c1.25.45,2.56.87,4,1.29a.61.61,0,0,1,.42.76A.62.62,0,0,1,376.12,105Zm-8-2.83a.69.69,0,0,1-.24-.05c-.49-.22-1-.43-1.46-.66-.84-.4-1.65-.82-2.4-1.24a.61.61,0,0,1,.6-1.07c.73.41,1.51.81,2.32,1.2.48.22.95.44,1.43.64a.62.62,0,0,1-.25,1.18Zm-7.32-4.23a.62.62,0,0,1-.38-.14,18.77,18.77,0,0,1-3.08-3.1.61.61,0,1,1,1-.75,17.46,17.46,0,0,0,2.88,2.89.63.63,0,0,1,.09.87A.65.65,0,0,1,360.81,97.89Zm-5-6.71a.6.6,0,0,1-.58-.41l-.05-.15a13,13,0,0,1-.66-4.15.63.63,0,0,1,.61-.64.58.58,0,0,1,.61.58,12.38,12.38,0,0,0,.6,3.82l.05.14a.61.61,0,0,1-.38.78A.64.64,0,0,1,355.8,91.18Zm-.07-8.34a.51.51,0,0,1-.17,0,.61.61,0,0,1-.43-.75q.24-.86.57-1.71a.62.62,0,0,1,.79-.35.61.61,0,0,1,.35.79c-.2.53-.37,1.06-.52,1.6A.63.63,0,0,1,355.73,82.84Z" transform="translate(-280.42 -23.88)"/><polygon class="cls-3" points="78.78 51.38 77.9 60.56 75.75 57.15 71.72 57.31 78.78 51.38"/><path class="cls-3" d="M422.9,155.48h0c-1.42,0-2.84-.13-4.26-.18a.72.72,0,0,1-.59-.75.6.6,0,0,1,.63-.57c1.41,0,2.81.1,4.22.1a.66.66,0,0,1,.61.67A.72.72,0,0,1,422.9,155.48Zm4.24,0c-.33,0-.6-.39-.61-.73a.73.73,0,0,1,.59-.76c1.41,0,2.81-.08,4.22-.16a.63.63,0,0,1,.65.61.68.68,0,0,1-.58.72c-1.42.08-2.83.32-4.25.32Zm-12.71,0h0c-1.41,0-2.83-.43-4.24-.55-.34,0-.59-.52-.56-.85a.6.6,0,0,1,.66-.57c1.4.11,2.8.23,4.21.32.34,0,.6.49.58.82S414.75,155.5,414.43,155.5Zm21.17-.81a.61.61,0,0,1-.05-1.22c1.4-.13,2.8-.28,4.19-.46a.61.61,0,1,1,.15,1.22c-1.41.18-2.82.33-4.23.46ZM406,154.28h-.07l-.71-.08c-1.17-.13-2.34-.28-3.52-.44a.61.61,0,0,1,.17-1.21c1.17.16,2.33.31,3.48.44l.71.07a.62.62,0,0,1-.06,1.23Zm-8.4-1.19h-.1c-1.42-.25-2.83-.53-4.19-.83a.62.62,0,0,1-.47-.73.63.63,0,0,1,.73-.47c1.35.3,2.74.57,4.14.82a.61.61,0,0,1-.11,1.22Zm-8.27-1.83a.51.51,0,0,1-.17,0c-1.4-.38-2.78-.79-4.09-1.21a.62.62,0,0,1-.39-.78.6.6,0,0,1,.77-.39c1.29.42,2.65.83,4,1.2a.61.61,0,0,1,.43.75A.63.63,0,0,1,389.31,151.26Zm-8.06-2.65a.62.62,0,0,1-.23,0c-1.34-.53-2.66-1.1-3.93-1.7a.61.61,0,0,1,.52-1.11c1.25.59,2.55,1.15,3.86,1.67a.61.61,0,0,1,.35.79A.63.63,0,0,1,381.25,148.61ZM373.59,145a.64.64,0,0,1-.3-.08c-1.27-.72-2.49-1.49-3.64-2.28a.63.63,0,0,1-.15-.86.62.62,0,0,1,.85-.15c1.12.77,2.31,1.52,3.55,2.23a.6.6,0,0,1,.22.83A.59.59,0,0,1,373.59,145Zm-15.34-3.33h0c-1.43-1-2.87-.38-4.3-.63a.66.66,0,0,1-.5-.75.69.69,0,0,1,.71-.59,28.77,28.77,0,0,0,4.13.35c.33,0,.6.51.59.85S358.58,141.64,358.25,141.64Zm4.23-.59a.61.61,0,0,1-.08-1.22,24,24,0,0,0,3-.58c-.79-.7-1.56-1.43-2.28-2.17a.63.63,0,0,1,0-.87.62.62,0,0,1,.87,0,39.53,39.53,0,0,0,3.06,2.84.61.61,0,0,1-.31,1.07,25.39,25.39,0,0,1-4.16.91Zm-12.56-1.23-.19,0a36.81,36.81,0,0,1-4-1.56.61.61,0,0,1-.3-.81.6.6,0,0,1,.81-.3,38.78,38.78,0,0,0,3.88,1.51.61.61,0,0,1-.19,1.19Zm20.59-1.33a.62.62,0,0,1-.54-.32.61.61,0,0,1,.25-.83,18.76,18.76,0,0,0,2.53-1.67c.28-.21.55-.44.82-.68a.61.61,0,0,1,.81.92c-.28.25-.58.5-.88.73a20.14,20.14,0,0,1-2.69,1.77A.56.56,0,0,1,370.51,138.49Zm-28.3-2.16a.54.54,0,0,1-.3-.08c-1.19-.69-2.41-1.47-3.61-2.32a.61.61,0,0,1,.7-1c1.18.82,2.37,1.59,3.52,2.26a.61.61,0,0,1,.22.84A.62.62,0,0,1,342.21,136.33Zm18.54-2.26a.62.62,0,0,1-.48-.23l-.2-.26a26.26,26.26,0,0,1-2.2-3.36.62.62,0,0,1,.24-.83.63.63,0,0,1,.84.24,25.23,25.23,0,0,0,2.09,3.21l.19.24a.62.62,0,0,1-.1.86A.6.6,0,0,1,360.75,134.07Zm16-1.19a.66.66,0,0,1-.35-.11.61.61,0,0,1-.16-.85,17.86,17.86,0,0,0,1.9-3.62.61.61,0,1,1,1.14.44,19,19,0,0,1-2,3.87A.64.64,0,0,1,376.76,132.88Zm-41.49-1.39a.57.57,0,0,1-.39-.14c-1.06-.85-2.15-1.78-3.25-2.77a.61.61,0,1,1,.82-.91c1.08,1,2.16,1.89,3.2,2.73a.61.61,0,0,1-.38,1.09Zm21.42-4.82a.61.61,0,0,1-.58-.41,20.18,20.18,0,0,1-1-4.26.61.61,0,1,1,1.22-.13,18.88,18.88,0,0,0,.91,4,.61.61,0,0,1-.38.78A.69.69,0,0,1,356.69,126.67Zm-27.77-.81a.59.59,0,0,1-.41-.16,35.22,35.22,0,0,0-3.2-2.66.61.61,0,0,1,.71-1,38.51,38.51,0,0,1,3.32,2.76.61.61,0,0,1-.42,1.06Zm50.86-.83h-.08a.62.62,0,0,1-.53-.69,16.74,16.74,0,0,0,.14-2.11,14.13,14.13,0,0,0-.14-2,.61.61,0,0,1,.53-.68.59.59,0,0,1,.69.52,16.41,16.41,0,0,1,.14,2.12,15.83,15.83,0,0,1-.15,2.27A.6.6,0,0,1,379.78,125Zm-23.88-6.71h-.12a.61.61,0,0,1-.49-.72,11.65,11.65,0,0,1,1.64-4.13.61.61,0,1,1,1,.66,10.55,10.55,0,0,0-1.46,3.71A.62.62,0,0,1,355.9,118.32Zm22.68-1.56a.6.6,0,0,1-.55-.35,12.31,12.31,0,0,0-.61-1.13,11.1,11.1,0,0,0-1.72-2.12.61.61,0,1,1,.85-.88,11.35,11.35,0,0,1,1.91,2.37,12.24,12.24,0,0,1,.67,1.23.61.61,0,0,1-.29.82A.58.58,0,0,1,378.58,116.76Zm-18.17-5.34a.63.63,0,0,1-.52-.28.61.61,0,0,1,.19-.85,11.53,11.53,0,0,1,4.14-1.6.61.61,0,1,1,.23,1.2,10.41,10.41,0,0,0-3.71,1.44A.66.66,0,0,1,360.41,111.42Zm12.21-.44a.62.62,0,0,1-.26-.06,13.61,13.61,0,0,0-3.88-1.11.62.62,0,0,1-.53-.69.61.61,0,0,1,.69-.53,15,15,0,0,1,4.23,1.22.61.61,0,0,1,.31.81A.62.62,0,0,1,372.62,111Z" transform="translate(-280.42 -23.88)"/><polygon class="cls-3" points="39.12 96.14 48.34 96.24 45.12 98.67 45.63 102.67 39.12 96.14"/><path class="cls-11" d="M425,530.45l3-2.42,1.26-19.88s17.63,1.89,17.64,2.14-.82,18.59-.82,18.59l1.53,5-12.87,1.68-7.44-1.39Z" transform="translate(-280.42 -23.88)"/><polygon class="cls-11" points="233.3 506.96 233.1 487.76 213.01 488.56 217.68 506.92 224.58 512.78 233.3 506.96"/><path class="cls-3" d="M491.47,544.7c.43-1.65,5.32-11.46,6.49-13.92a20,20,0,0,0,8.16,1.34c2.63-.14,5.54-.54,7.57-2.24,1.44,1.82,3.2,4.31,4.55,6.35,1.22,1.84,2.9,3.73,3.81,5.82a5.34,5.34,0,0,1-1,6.09c-5.42,5-21.23,6.94-28.32,2.1C490.66,548.79,491.17,545.82,491.47,544.7Z" transform="translate(-280.42 -23.88)"/><path class="cls-12" d="M426.2,518.72a67.06,67.06,0,0,0,14.12,2.93c7.62.69,8.12-.26,8.12-.26l9.1-91.74s3.33-10.2,7.81-24q.54-1.62,1.08-3.3c4.5-13.82,9.9-30.47,14.24-43.92l.16-.48c4.44-13.78,7.72-24.1,7.67-24.35-.12-.59-2.76-16.73-3.86-23.4-.18-1.12.23-5.36-.61-5.64-5.26,1.54-12.21,1.46-17.47,1.15-9.18-.54-15.06-1.25-15.06-1.25s-11.19,28.68-15.43,45.76-9,82.53-9,82.53Z" transform="translate(-280.42 -23.88)"/><path class="cls-13" d="M465.35,405.69q.54-1.62,1.08-3.3c4.5-13.82,9.9-30.47,14.24-43.92l.16-.48c-2.34-10.93-4.89-21.84-4.87-33-7.65,14.75-9.71,31.74-10.2,48.35-.18,6.09-.17,12.18-.19,18.27C465.55,396.33,465.51,401,465.35,405.69Z" transform="translate(-280.42 -23.88)"/><path class="cls-12" d="M469.1,305.88a44.2,44.2,0,0,0,15.38-2.32c3.75-1.13,8.72-3.5,11.63-6.19,5.26,8.37,12.95,20.88,15.35,36.56,5,32.52-5.41,96.21-5.41,96.21s7.41,59.46,11.53,91.75c-5.3,2.44-5.29,2.56-11.26,2.87-6.49.33-6.93.45-13.06-1.36L473,431C471.35,390.61,469.48,346.32,469.1,305.88Z" transform="translate(-280.42 -23.88)"/><path class="cls-3" d="M404.41,548.94c3.28.4,6.75,0,10-.2,9.41-.48,18.79-1.43,28.17-2.36a12.27,12.27,0,0,0,4.37-1,6.18,6.18,0,0,0,2.52-2.42,4.78,4.78,0,0,0,.64-2.05,3.64,3.64,0,0,0,0-.74,9.89,9.89,0,0,0-.95-2.87c-.76-1.69-1.15-2.94-1.91-4.63A84.52,84.52,0,0,1,425,530.45l-2.11,1.21-12.16,6.93c-1.64.93-3.28,1.88-4.93,2.81l-1.18.68c-1.16.66-2.84,1.13-3.66,2.26a2.47,2.47,0,0,0-.41.9C400,547.78,402.34,548.7,404.41,548.94Z" transform="translate(-280.42 -23.88)"/><path class="cls-1" d="M397.62,292l-34.48-22.45-5.94,4.14c12.15,14.66,18.28,19.89,18.28,19.89" transform="translate(-280.42 -23.88)"/><path class="cls-1" d="M362.78,277.49l-5.58-3.77s-6.86,1.23-9.62,1a10.21,10.21,0,0,1-6.53-3.06c-1.05-1.12-2.51-5.12-2-5.42,1.28-.72,6.1,3.14,7.48,2.9s5.31-2.29,7.67-2.95A8,8,0,0,1,361.3,268l6.11,4.77" transform="translate(-280.42 -23.88)"/><polyline class="cls-2" points="93.95 251.79 87.96 248.01 80.24 256.38 86.75 263.23"/><path class="cls-3" d="M452.31,225.9s-20.08-4.38-30.24,15.87c-9.47,18.86-8.54,48.38-11.85,49.8-2.3,1-24.34-11.12-37.6-18.62l-7.82,9.74c14.71,16.77,42.78,44,63.6,35.08,16.34-7,33.54-59.57,33.54-59.57" transform="translate(-280.42 -23.88)"/><line class="cls-4" x1="164.2" y1="272.23" x2="180.19" y2="240.92"/><path class="cls-3" d="M507.11,316.9l-59.86,2.32-20.64-74.65s29.26-21,39.87-30.67l13.12,2.6C535.17,241.76,508.29,265.7,507.11,316.9Z" transform="translate(-280.42 -23.88)"/><path class="cls-14" d="M482.41,171.18S519.74,184.7,498.32,241a14.42,14.42,0,0,1-17.81,8.89h0a14.27,14.27,0,0,1-8.85-18.93c3.54-8.89,6.61-20.13,3.63-27.8Z" transform="translate(-280.42 -23.88)"/><circle class="cls-3" cx="489.65" cy="176.28" r="9.52" transform="matrix(0.61, -0.79, 0.79, 0.61, -228.05, 434.56)"/><path class="cls-15" d="M458.43,219.15c.2,1.43,2.89,2.53,4.57,2.74a41.2,41.2,0,0,0,6.07.51c4-.06,9.6-2.15,11.6-5,0-2.28-.23-2.14-.24-4.42,0-2.86,0-5.72.27-8.57q.14-1.31.33-2.61c.32-2.15.76-4.29,1.2-6.43q.56-2.62,1.09-5.27a13.59,13.59,0,0,1-3.29,2.11c-5.33,2.76-10.76,5.33-16.22,7.82a25.24,25.24,0,0,1-5.08,1.88l-.3,10Z" transform="translate(-280.42 -23.88)"/><path class="cls-14" d="M458.43,215.06a61.42,61.42,0,0,0,17.41-6.85c1.71-1,3.49-2.09,5.19-3.26.32-2.16.76-4.29,1.2-6.43q.56-2.64,1.09-5.27a13.26,13.26,0,0,1-3.29,2.1c-5.33,2.77-10.76,5.33-16.22,7.82a25.24,25.24,0,0,1-5.08,1.88Z" transform="translate(-280.42 -23.88)"/><path class="cls-15" d="M447.55,200c1.26,3.3,3,6.32,6,8.31a16,16,0,0,0,9.05,2.61,20.48,20.48,0,0,0,10-3,26.63,26.63,0,0,0,4.22-3.15,36.15,36.15,0,0,0,5.84-7,44.92,44.92,0,0,0,6.09-13.91,28.13,28.13,0,0,0-.86-16.92,21.47,21.47,0,0,0-3.68-6.12,20.31,20.31,0,0,0-26.54-3.65,25.86,25.86,0,0,0-9.54,12.35,47.44,47.44,0,0,0-1.51,4.78C444.43,182.62,444.46,191.83,447.55,200Z" transform="translate(-280.42 -23.88)"/><path class="cls-15" d="M480.2,196.27a9.8,9.8,0,0,0,9.61,1A9.62,9.62,0,0,0,495.1,191a8.72,8.72,0,0,0,.25-1.53,6.84,6.84,0,0,0-.3-2.7,6,6,0,0,0-5.07-3.88,7,7,0,0,0-5.92,2.64l-1.48,4.15Z" transform="translate(-280.42 -23.88)"/><path class="cls-16" d="M452.09,195.31v0a6.94,6.94,0,0,0,1.42,4.75,7.25,7.25,0,0,0,11.06.5,6.89,6.89,0,0,0,1.81-4.14v0Z" transform="translate(-280.42 -23.88)"/><path class="cls-17" d="M453.51,200.1a7.25,7.25,0,0,0,11.06.5,18.69,18.69,0,0,0-1.75-.69,13.2,13.2,0,0,0-7.06-.58A11.07,11.07,0,0,0,453.51,200.1Z" transform="translate(-280.42 -23.88)"/><path class="cls-18" d="M453.42,195.42c.18.16.37.31.56.46,2.83,2.21,8.13,3.25,10.87.42Z" transform="translate(-280.42 -23.88)"/><path class="cls-18" d="M466.65,183.79a.68.68,0,0,1,.12,1.36A.68.68,0,0,1,466.65,183.79Z" transform="translate(-280.42 -23.88)"/><path class="cls-18" d="M452.17,183.55a.68.68,0,0,1,.12,1.35A.68.68,0,0,1,452.17,183.55Z" transform="translate(-280.42 -23.88)"/><path class="cls-14" d="M476.38,180.79c.23-6,.31-10.15-6.05-12.38,0,0-20.45,6.62-25.52-.76s-.63-20.68,13.3-13.71c31.84-10.77,40.32,19.24,31.78,30.77l-10-.2A3.58,3.58,0,0,1,476.38,180.79Z" transform="translate(-280.42 -23.88)"/><circle class="cls-14" cx="186.26" cy="160.82" r="1.41"/><circle class="cls-14" cx="171.4" cy="160.19" r="1.41"/><path class="cls-14" d="M458,194.08a.46.46,0,0,0,.26-.15.41.41,0,0,0-.06-.56c-.64-.51-1.37-1.26-1.19-1.89s1.28-1.08,1.8-1.15c1.11-.15,1.38-2.2,1.42-2.61a.41.41,0,0,0-.35-.44.4.4,0,0,0-.44.36c-.09.86-.43,1.86-.74,1.9-.53.07-2.13.54-2.46,1.72-.23.85.26,1.77,1.46,2.73A.4.4,0,0,0,458,194.08Z" transform="translate(-280.42 -23.88)"/><path class="cls-14" d="M464.1,179c-.22,1.7,1.19,1.49,3,1.73s3.52-.05,3.62-.86-1.29-1.65-3.13-1.89S464.27,177.69,464.1,179Z" transform="translate(-280.42 -23.88)"/><path class="cls-14" d="M454.58,177.93c.13,1.38-1,1.17-2.52,1.31s-2.86-.15-2.92-.81,1.11-1.3,2.61-1.44S454.48,176.85,454.58,177.93Z" transform="translate(-280.42 -23.88)"/><path class="cls-19" d="M500.08,538.33s4-5.63,13.64-1.66" transform="translate(-280.42 -23.88)"/><path class="cls-20" d="M500.08,544.37s2.59-6.69,15.52-2.92" transform="translate(-280.42 -23.88)"/><path class="cls-19" d="M420.94,539.78s2.82-5-2.85-5.39" transform="translate(-280.42 -23.88)"/><path class="cls-19" d="M411.84,542.33s1.45-5.21-1.12-3.74" transform="translate(-280.42 -23.88)"/><polygon class="cls-21" points="0 151.94 13.85 242.82 117.41 242.82 117.41 236.01 17.54 236.87 3.63 149.97 0 151.94"/><polygon class="cls-22" points="26.7 234.5 26.7 236.79 111.74 236.06 110.88 234.5 26.7 234.5"/><path class="cls-22" d="M284.33,175.6s13,72,13.62,85.16" transform="translate(-280.42 -23.88)"/></svg>