<svg xmlns="http://www.w3.org/2000/svg" viewBox="0 0 1560.28 1318.21"><defs><style>.cls-1{fill:#f7f0e3;}.cls-2{fill:#fff;}.cls-3{fill:#e9ddca;}.cls-4{fill:#d3dfff;}.cls-5{fill:#102048;}.cls-6{fill:#dddad4;}.cls-7{fill:#f9b384;}.cls-8{fill:#7a7977;}.cls-9{fill:#e28b6d;}.cls-10{fill:#269d48;}.cls-11{opacity:0.8;}.cls-12{fill:#eb5d60;opacity:0.4;}.cls-13{fill:#1f3c88;}.cls-14{fill:#24562a;}</style></defs><title>Feb-Business_9 [Converted]</title><g id="OBJECTS"><path class="cls-1" d="M1741.8,1363c-24.1-54.82-70.39-100.57-126-123.08-57.91-23.46-124.41-14.92-185.41-22.78-53-6.82-91.2-30.47-122.84-72.52-30.31-40.29-57.48-84.91-107-103.55-39.16-14.72-83.68-10.64-122.6,4.7-71.71,28.28-125.88,88.4-171.5,148.3-41.65,54.69-75.62,114.57-152.66,116.52s-150.48-42-228.09-30.37c-102.59,15.4-188,100.8-205.92,202.47-16.78,95.28,25.32,187.69,97.65,242H1660.62C1751.76,1628,1799.59,1494.42,1741.8,1363Z" transform="translate(-310.79 -410.98)"/><path class="cls-2" d="M618,1724.66h3.42a262.34,262.34,0,0,0,54.18-92.94c19.14-56.91,18.34-116.64-2.27-168.18-10.42-26-25.46-50.32-40-73.8-14.75-23.81-30-48.43-40.35-74.81a166.88,166.88,0,0,1-9.35-34.57l-2.57-.31a169.07,169.07,0,0,0,9.59,35.8c10.43,26.59,25.75,51.31,40.56,75.21,14.48,23.38,29.46,47.57,39.8,73.41,20.38,51,21.17,110.1,2.22,166.45A259.47,259.47,0,0,1,618,1724.66Z" transform="translate(-310.79 -410.98)"/><path class="cls-2" d="M1654.61,1616.24c25.62,5.46,50.3,10.35,74.18,13.43.41-.79.8-1.58,1.21-2.37-24.07-3.06-49-8-74.86-13.51-39.4-8.39-82.05-17.48-124.34-17.48-26.19,0-52.24,3.49-77.3,12.77a158.14,158.14,0,0,0-27.36,13.3c-22.63-9.64-45.38-20.17-67.91-31.73q24.52-18.48,49.57-36c124-86.57,238.4-135.65,348.94-149.58-.22-.81-.45-1.62-.68-2.43-110.84,14-225.51,63.25-349.69,150q-25.57,17.87-50.61,36.82a836.49,836.49,0,0,1-74.62-43.36c-44-28.8-96.24-69.91-141.9-124.54,177-19.85,357.1-44.86,504.22-143.19,5.58-3.73,11.77-8.13,18.18-13.13-.71-.5-1.42-1-2.14-1.49-6.14,4.76-12.07,9-17.43,12.54-147.08,98.3-327.57,123.12-504.75,143-32.26-39-61.09-84.87-81.13-137.94-31.2-82.67-29.56-163.79,4.53-222.58,1.48-2.55,3-5.06,4.65-7.55-1.42.65-2.83,1.33-4.24,2q-1.32,2.13-2.58,4.29c-34.46,59.44-36.17,141.34-4.7,224.71,19.93,52.79,48.5,98.45,80.51,137.39q-15.39,1.73-30.74,3.41c-36.9,4.07-75,8.28-112.1,13-13.52,1.74-27.27,3.77-41,6.32-29.33-61.91-61.55-122.31-103.2-174.1-.59.59-1.2,1.17-1.8,1.76,41.29,51.4,73.31,111.34,102.46,172.82-59.68,11.38-117.63,32.77-148.57,82.58-28.9,46.51-28.87,110.8.08,191.08,1,2.78,2,5.51,3.08,8.23h2.67c-1.14-3-2.28-6-3.4-9.08-28.68-79.53-28.78-143.09-.31-188.91,30.58-49.21,88.21-70.32,147.56-81.57,10.36,21.9,20.36,44,30.3,65.94l1.08,2.39c34.53,76.21,70.24,149.77,117,211.23h3.12c-47.19-61.57-83.1-135.57-117.84-212.26l-1.08-2.39c-9.86-21.76-19.78-43.66-30-65.38,13.42-2.48,26.91-4.47,40.17-6.18,37-4.76,75.16-9,112.05-13q16.15-1.79,32.37-3.59c46.1,55.48,99,97.16,143.51,126.29a839.86,839.86,0,0,0,73.78,42.94c-42.53,32.17-83.9,66-124.29,99.06-14,11.44-28.13,23-42.39,34.55h4q20.17-16.37,40-32.62c40.67-33.27,82.33-67.36,125.16-99.72,22.41,11.53,45,22,67.54,31.67-30.79,19.59-55.89,49.91-71.06,86.74-1.9,4.61-3.56,9.26-5.09,13.93H1350c1.45-4.35,3-8.69,4.77-13,15.22-36.93,40.52-67.22,71.55-86.49,62.92,26.73,124.75,46.57,177.89,62.29l2,.59c22.39,6.62,45.29,13.41,65.54,24.3.57-.64,1.14-1.28,1.7-1.93-20.58-11.17-43.82-18-66.54-24.77l-2-.59c-52.59-15.56-113.71-35.16-176-61.49a155.13,155.13,0,0,1,25.38-12.16C1519.23,1587.39,1591.16,1602.72,1654.61,1616.24Z" transform="translate(-310.79 -410.98)"/><path class="cls-2" d="M423.67,1454.3c11,45.2,6.11,94-13.52,133.92-12.86,26.15-31.43,49.81-54.3,70.14.45.7.92,1.41,1.38,2.11,23.24-20.59,42.11-44.6,55.16-71.14,19.89-40.43,24.89-89.86,13.7-135.62-8.73-35.75-26.29-66-50.55-88l-1.61,1.92C397.78,1389.25,415.06,1419.08,423.67,1454.3Z" transform="translate(-310.79 -410.98)"/><path class="cls-1" d="M989.49,881.74C1011.27,904,1021,941.49,1009,976.06c-11.63,33.47-37.12,61.19-67.74,79-24.64,14.34-56.78,22.26-81,7.24-18.11-11.22-27.5-33.24-28-54.54s6.64-42,15.49-61.43C860.22,919,877,892.54,902,875.93,936.51,853,968.55,860.35,989.49,881.74Z" transform="translate(-310.79 -410.98)"/><path class="cls-3" d="M700.8,491.55H520.46V411H700.8ZM524.21,487.8H697.05V414.73H524.21Z" transform="translate(-310.79 -410.98)"/><path class="cls-3" d="M583.48,568.59H403.14V488H583.48Zm-176.59-3.75H579.73V491.77H406.89Z" transform="translate(-310.79 -410.98)"/><circle class="cls-4" cx="665.41" cy="961.59" r="26.15" transform="matrix(0.18, -0.98, 0.98, 0.18, -713.1, 1027.48)"/><ellipse class="cls-4" cx="689.05" cy="1012.8" rx="14.71" ry="14.81" transform="translate(-744.13 1092.53) rotate(-79.39)"/><circle class="cls-4" cx="600.88" cy="829.93" r="102.96" transform="translate(-721.64 256.99) rotate(-45)"/><circle class="cls-2" cx="250.56" cy="418.95" r="12.97"/><circle class="cls-2" cx="290.09" cy="418.95" r="12.97"/><circle class="cls-2" cx="329.63" cy="418.95" r="12.97"/><path class="cls-5" d="M527.13,1672.65l9.62,37.09c2.5,9.67,11.86,16.2,22.2,15.5,31.54-2.14,97.08-9.87,134.7-37.6L683,1634.19c-51.71-2.92-100.08,0-142,14.06C530.5,1651.78,524.44,1662.29,527.13,1672.65Z" transform="translate(-310.79 -410.98)"/><path class="cls-2" d="M587.4,1702.17a1.25,1.25,0,0,1-1.2-.91L573.28,1655a1.25,1.25,0,0,1,.87-1.54,1.24,1.24,0,0,1,1.54.86l12.92,46.25a1.25,1.25,0,0,1-.87,1.54A1,1,0,0,1,587.4,1702.17Z" transform="translate(-310.79 -410.98)"/><path class="cls-2" d="M615.32,1695.92a1.24,1.24,0,0,1-1.2-.91l-12.92-46.25a1.25,1.25,0,0,1,2.41-.68l12.92,46.25a1.25,1.25,0,0,1-.87,1.54A1,1,0,0,1,615.32,1695.92Z" transform="translate(-310.79 -410.98)"/><polygon class="cls-6" points="336.95 1061.19 216.75 1096.86 306.02 1219.18 434.18 1229.37 610.95 1154.62 543.77 1053.55 336.95 1061.19"/><path class="cls-6" d="M795.93,1489.16c264-78.15,306.41,155.16-105.47,197.63-14.55-16.37-31.55-44.78-38.3-68.52l217.51-100.52Z" transform="translate(-310.79 -410.98)"/><path class="cls-7" d="M807.15,1656.36C794.8,1652.41,783,1644.6,783,1644.6l-42.42,13.31,9.72,46.15,44.07,9C807.77,1688.45,808.55,1668.29,807.15,1656.36Z" transform="translate(-310.79 -410.98)"/><path class="cls-8" d="M653.1,1619.89l-1.88-3.24c45.38-26.38,161.6-89.73,260.63-108.41l.69,3.68C814.09,1530.5,698.31,1593.61,653.1,1619.89Z" transform="translate(-310.79 -410.98)"/><path class="cls-6" d="M647.74,1472.17C402,1425.45,338.4,1661.59,750.27,1704.06A149.61,149.61,0,0,0,783,1644.6c-63.27-42.34-134-82.57-211.53-120.9Z" transform="translate(-310.79 -410.98)"/><path class="cls-8" d="M782,1646.18c-11.69-7.44-23.87-15.3-36.77-23.63-64.72-41.79-138.09-89.16-200.42-116.17l1.5-3.44c62.61,27.14,136.11,74.59,201,116.46,12.89,8.32,25.06,16.18,36.74,23.62Z" transform="translate(-310.79 -410.98)"/><path class="cls-8" d="M467.47,1589.25l-3.29-1.81c9.23-16.7,24-28,43.91-33.48l1,3.62C489.92,1562.89,476.31,1573.25,467.47,1589.25Z" transform="translate(-310.79 -410.98)"/><path class="cls-8" d="M980.3,1575c-8.84-16-22.46-26.37-41.63-31.68l1-3.61c19.92,5.51,34.69,16.78,43.91,33.47Z" transform="translate(-310.79 -410.98)"/><path class="cls-8" d="M727.26,1702l-2.74-2.56c19.66-21.05,31.73-43.27,36.91-67.93l3.66.76C759.77,1657.61,747.4,1680.42,727.26,1702Z" transform="translate(-310.79 -410.98)"/><path class="cls-5" d="M929.69,1642.62c-31.48-19.45-92.51,14.15-107.83,15.85-4.47.5-9.63-.48-14.71-2.11,1.4,11.93.62,32.09-12.81,56.65l7.49,1.52s51.75,19,106.65,7.93C959.15,1712.27,954.44,1657.91,929.69,1642.62Z" transform="translate(-310.79 -410.98)"/><path class="cls-2" d="M886.78,1706.23a1.31,1.31,0,0,1-.38-.06,1.24,1.24,0,0,1-.81-1.56c3.74-11.85,5.37-35.14-5.46-50.79a1.25,1.25,0,1,1,2-1.42c11.35,16.38,9.68,40.65,5.79,53A1.25,1.25,0,0,1,886.78,1706.23Z" transform="translate(-310.79 -410.98)"/><path class="cls-2" d="M862.09,1710.92a1.19,1.19,0,0,1-.37-.06,1.25,1.25,0,0,1-.82-1.57c3.74-11.84,5.37-35.14-5.46-50.78a1.25,1.25,0,0,1,.32-1.74,1.23,1.23,0,0,1,1.73.31c11.35,16.39,9.68,40.65,5.79,53A1.24,1.24,0,0,1,862.09,1710.92Z" transform="translate(-310.79 -410.98)"/><path class="cls-7" d="M604.27,1167.71s61.88-52.62,59.59-62.62c-1.63-7.15-19.16,3.33-19.16,3.33s24.58-29.17,23.33-32.71c-2.23-6.33-19.24,5.47-19.24,5.47s11.5-16.54,6-19.24-17.47,7.5-17.47,7.5,7-9.18,3.71-11.59-17.47,7.5-17.47,7.5,5.09-11.58-5.73-7.19-86.63,74-86.63,74Z" transform="translate(-310.79 -410.98)"/><path class="cls-9" d="M629.59,1105.29a1.23,1.23,0,0,1-.84-.32c-10.62-9.71-15.31-12.06-27-15.67a1.24,1.24,0,0,1-.82-1.56,1.25,1.25,0,0,1,1.56-.83c12.14,3.74,17,6.18,28,16.21a1.25,1.25,0,0,1,.07,1.77A1.22,1.22,0,0,1,629.59,1105.29Z" transform="translate(-310.79 -410.98)"/><path class="cls-9" d="M611,1133.84h-.18a1.25,1.25,0,0,1-1.06-1.42c1.21-8.7,3.95-14.13,8.37-16.62,3.78-2.12,8.69-1.91,14.61.65a1.25,1.25,0,0,1-1,2.29c-5.16-2.22-9.33-2.48-12.39-.76-3.64,2-6,7-7.13,14.79A1.25,1.25,0,0,1,611,1133.84Z" transform="translate(-310.79 -410.98)"/><path class="cls-9" d="M608,1081.23a1.25,1.25,0,0,1-.86-2.16l15.53-14.63a1.25,1.25,0,1,1,1.71,1.82l-15.52,14.63A1.23,1.23,0,0,1,608,1081.23Z" transform="translate(-310.79 -410.98)"/><path class="cls-9" d="M622.4,1086.23a1.2,1.2,0,0,1-.86-.35,1.24,1.24,0,0,1,0-1.76l14.92-15.54a1.25,1.25,0,1,1,1.8,1.73l-14.91,15.54A1.29,1.29,0,0,1,622.4,1086.23Z" transform="translate(-310.79 -410.98)"/><path class="cls-9" d="M637.09,1095a1.26,1.26,0,0,1-.85-.33,1.25,1.25,0,0,1-.06-1.77l11.7-12.55a1.25,1.25,0,0,1,1.83,1.7L638,1094.58A1.24,1.24,0,0,1,637.09,1095Z" transform="translate(-310.79 -410.98)"/><path class="cls-10" d="M838,1519.66l-226.25,8.75-25-206.25s75.74-71.84,104.88-98.29l49.2-2.53C893.49,1290.72,868.5,1377.37,838,1519.66Z" transform="translate(-310.79 -410.98)"/><path class="cls-10" d="M740.86,1221.34s174.62,14.94,229.67,134.57C1024.4,1473,803,1514.66,803,1514.66Z" transform="translate(-310.79 -410.98)"/><path class="cls-10" d="M541.26,1247l72.15-87.81-67.47-40.9c-28.15,19.57-82.58,63.9-128.71,114.1-10.18,11.08-18.14,24-22.14,38.28a82.34,82.34,0,0,0-2.12,35.93h0c5,30.66,29.12,54.31,61.31,58.08,27.49,3.22,132.5-5,217.5-30l25-96.49C683.93,1230.88,588.46,1229.62,541.26,1247Z" transform="translate(-310.79 -410.98)"/><g class="cls-11"><path class="cls-2" d="M886.58,1268.82l1.13-.26-2.37-1.38c-12.8,3-26,6-39,7.53-7.83.94-34,2.67-41.6-14.74-3.8-8.67-.92-18.3,3.37-25.06-.62-.19-1.24-.36-1.87-.54-4.4,7.16-7.22,17.21-3.22,26.35,8.16,18.6,35.39,16.83,43.54,15.85C859.94,1275,873.49,1271.84,886.58,1268.82Z" transform="translate(-310.79 -410.98)"/><path class="cls-2" d="M968.08,1403.75c-8.35-3.22-17-6.55-26-5.7-15.9,1.5-29.5,17.22-30.32,35-.56,12.15,4.08,24.88,12.92,36.08l1.6-1c-8.65-10.88-13.19-23.23-12.65-35,.79-16.92,13.62-31.83,28.62-33.25,8.62-.8,16.66,2.29,25.17,5.58,3,1.17,6.13,2.36,9.27,3.36.16-.6.32-1.21.46-1.82C974.07,1406.06,971.05,1404.9,968.08,1403.75Z" transform="translate(-310.79 -410.98)"/><path class="cls-2" d="M527.33,1344.12c-10.9-9-27.84-11.42-46.47-6.61-16.6,4.29-30.84,12.8-40.62,24,.64.21,1.27.45,1.92.64,9.52-10.68,23.23-18.75,39.17-22.87,18-4.67,34.37-2.39,44.81,6.24a40.66,40.66,0,0,1,11,15.17l1.94-.22A42.84,42.84,0,0,0,527.33,1344.12Z" transform="translate(-310.79 -410.98)"/><path class="cls-2" d="M428.77,1220.11c20.43-5.07,40.37-12.2,58.75-22.79,7-4,14.79-9.11,20.31-16.6,5.87-8,7.82-17.46,5.22-25.38a19.75,19.75,0,0,0-5.09-8l-1.44,1.18a18,18,0,0,1,4.74,7.42c2.42,7.35.57,16.21-4.94,23.69-5.31,7.21-13,12.18-19.73,16.08-17.35,10-36.1,16.9-55.37,21.89Z" transform="translate(-310.79 -410.98)"/></g><path class="cls-7" d="M756.84,1175.49l0,3.2-.51,49.73-.06,5.39a31,31,0,0,1-61.94,0l-.6-61.46Z" transform="translate(-310.79 -410.98)"/><path class="cls-5" d="M756.81,1178.69l-.51,49.73c-27.64-11.25-39-41.17-39-41.17Z" transform="translate(-310.79 -410.98)"/><path class="cls-7" d="M767.74,1091.91c9.91,11.88,38.83,79.24,9.51,102.21-33,25.86-83.2-16.64-83.2-16.64L687.32,1099l43.58-11.49Z" transform="translate(-310.79 -410.98)"/><path class="cls-5" d="M665.11,1087.59s-96.66,50.41-17.84,195.74C657.39,1302,679.81,1310.15,699,1301h0a39.21,39.21,0,0,0,17.2-54.76c-12.89-22.9-25.34-52.4-20-74.34Z" transform="translate(-310.79 -410.98)"/><circle class="cls-10" cx="674.24" cy="1111.45" r="26.15" transform="translate(-899.23 391.32) rotate(-45)"/><path class="cls-5" d="M706.41,1142.87c-2.83-16.31-4.55-27.5,11.94-35.91,0,0,58.11,10.57,69.2-11.36s-5.81-56.52-41.2-32.48c-90.6-17.7-102.75,67.09-75.28,95.35l27.11-4.16A9.88,9.88,0,0,0,706.41,1142.87Z" transform="translate(-310.79 -410.98)"/><circle class="cls-5" cx="440.61" cy="731.94" r="3.86"/><circle class="cls-5" cx="466.76" cy="719.06" r="3.86"/><path class="cls-5" d="M774.87,1154.81a1.08,1.08,0,0,1-.75-.3,1.1,1.1,0,0,1,0-1.55c1.55-1.63,3.25-3.92,2.53-5.59s-3.87-2.47-5.3-2.47c-3.08,0-4.56-5.48-4.83-6.58a1.1,1.1,0,1,1,2.13-.51c.56,2.31,1.83,4.9,2.7,4.9,1.47,0,6,.7,7.31,3.8,1,2.21,0,4.89-3,8A1.14,1.14,0,0,1,774.87,1154.81Z" transform="translate(-310.79 -410.98)"/><path class="cls-5" d="M775.07,1169.47a1.07,1.07,0,0,1-.61-.19c-7.27-4.91-14.62-.79-14.69-.75a1.1,1.1,0,0,1-1.09-1.9c.35-.2,8.61-4.83,17,.84a1.09,1.09,0,0,1-.61,2Z" transform="translate(-310.79 -410.98)"/><path class="cls-5" d="M749.71,1126.19c2.2,4.13-1.63,5-6.12,7.35s-9.08,3.25-10.13,1.28,1.74-5.5,6.23-7.89S748,1123,749.71,1126.19Z" transform="translate(-310.79 -410.98)"/><path class="cls-5" d="M766.07,1118.72c1,3.69,3.72,2.08,7.73,1s7.23-3.06,6.77-4.82-4.08-2.34-8.08-1.3S765.32,1115.86,766.07,1118.72Z" transform="translate(-310.79 -410.98)"/><circle class="cls-12" cx="733.57" cy="1160.94" r="11.39" transform="translate(-903.55 393.91) rotate(-42.69)"/><ellipse class="cls-7" cx="690.31" cy="1160.98" rx="15.43" ry="17.53" transform="translate(-961.34 587.22) rotate(-52.34)"/><path class="cls-5" d="M697.09,1166.7a1.09,1.09,0,0,1-1.09-1.09,9.6,9.6,0,0,0-4.21-8,7.76,7.76,0,0,0-7.19-1,1.09,1.09,0,1,1-.83-2,9.89,9.89,0,0,1,9.24,1.17,11.76,11.76,0,0,1,5.18,9.8A1.09,1.09,0,0,1,697.09,1166.7Z" transform="translate(-310.79 -410.98)"/><rect class="cls-5" x="492.45" y="1267.07" width="58.14" height="2.5" transform="translate(-1074.62 379.32) rotate(-47.25)"/><path class="cls-5" d="M818.39,1429.62l-.72-2.4c28.73-8.75,56.61-19.23,81.88-50.83l2,1.56C875.79,1410.11,847.52,1420.74,818.39,1429.62Z" transform="translate(-310.79 -410.98)"/><path class="cls-4" d="M835.86,1332.8H591.45c-8.79,0-15.92,7.71-15.92,17.22v174.51c0,9.51,7.13,17.22,15.92,17.22H835.86c8.79,0,15.92-7.71,15.92-17.22V1350C851.78,1340.51,844.65,1332.8,835.86,1332.8Z" transform="translate(-310.79 -410.98)"/><path class="cls-13" d="M726.56,1426.24a1.76,1.76,0,0,1,1.68,1.82v18.43a1.76,1.76,0,0,1-1.68,1.82H700.75a1.76,1.76,0,0,1-1.68-1.82v-18.43a1.76,1.76,0,0,1,1.68-1.82h25.81m0-5H700.75a6.76,6.76,0,0,0-6.68,6.82v18.43a6.76,6.76,0,0,0,6.68,6.82h25.81a6.76,6.76,0,0,0,6.68-6.82v-18.43a6.76,6.76,0,0,0-6.68-6.82Z" transform="translate(-310.79 -410.98)"/><rect class="cls-5" y="1311.18" width="1473.68" height="5"/><path class="cls-14" d="M1853.58,719.69q-17.5-58.25-61.61-107.07t-120.54-80.78q-76.35-31.92-194-31.92-93.86,0-191.32,25.32t-169.28,72.34l62.28,171-33.38,27,48.41,14.23q71.67-37.52,130.6-54.48t125.09-16.88q66.2,0,100.24,31.92c22.69,21.34,34,47,34,77q0,54.48-34.91,96.73t-77.31,85.49q-29.37,30-57,61.94a444.8,444.8,0,0,0-48.75,68.61,373.28,373.28,0,0,0-34,78.88q-12.93,42.29-12.87,94.84c0,11.31.24,24.76.9,40.42.11,2.88.26,5.7.43,8.48h-45.76l49.94,33.77h242.81a162.28,162.28,0,0,1-1.85-26.29v-22.57a163.15,163.15,0,0,1,12.87-62.92,324.76,324.76,0,0,1,32.22-59.19,436.2,436.2,0,0,1,43.23-53.5q23.89-25.41,46-47.94,29.37-30,60.66-63.84a502.25,502.25,0,0,0,55.21-71.36,400.76,400.76,0,0,0,39.52-81.76q15.63-44.12,15.69-96.73T1853.58,719.69Z" transform="translate(-310.79 -410.98)"/><path class="cls-10" d="M1398.4,726.53q-65.51,0-123.62,16.34t-129.07,52.72l-76.4-205.4q70.92-45.45,167.3-70t189.07-24.5q116.29,0,191.74,30.89t119.12,78.17q43.59,47.32,60.9,103.62t17.28,107.24q0,50.94-15.51,93.62a384.62,384.62,0,0,1-39,79.12,487,487,0,0,1-54.57,69.06q-30.88,32.74-59.94,61.78-21.84,21.84-45.45,46.4a424.24,424.24,0,0,0-42.73,51.78,313.46,313.46,0,0,0-31.84,57.28,155.06,155.06,0,0,0-12.72,60.89v21.84a152.18,152.18,0,0,0,1.84,25.45h-240a253.59,253.59,0,0,1-4.56-40.89c-.65-15.15-.89-28.17-.89-39.12q0-50.86,12.73-91.79a357,357,0,0,1,33.61-76.34,430.48,430.48,0,0,1,48.17-66.39q27.26-30.9,56.34-59.95,41.8-41.8,76.4-82.73,34.44-40.92,34.5-93.62c0-29.12-11.19-53.91-33.62-74.57S1442,726.53,1398.4,726.53Z" transform="translate(-310.79 -410.98)"/><path class="cls-14" d="M1580.3,1592q0,65.67-42.52,101.39t-96.15,35.77q-53.72,0-96.19-35.77T1303,1592q0-65.58,42.47-101.38c43.63-36.82,108.18-45,159.26-19.19C1550,1494.4,1580.3,1541,1580.3,1592Z" transform="translate(-310.79 -410.98)"/><path class="cls-10" d="M1532.8,1592q0,65.67-42.52,101.39t-96.15,35.77q-53.72,0-96.19-35.77T1255.47,1592q0-65.58,42.47-101.38t96.19-35.77q53.65,0,96.15,35.77T1532.8,1592Z" transform="translate(-310.79 -410.98)"/></g></svg>